<svg width="56" height="56" viewBox="0 0 56 56" fill="none" xmlns="http://www.w3.org/2000/svg">
<g clip-path="url(#clip0_336_339)">
<path d="M9.99673 39.0031C10.2155 39.2219 10.5873 39.2328 10.828 39.0031L26.753 23.0781C27.1139 23.2969 27.5405 23.4391 27.9999 23.4391C28.4592 23.4391 28.8858 23.3078 29.2467 23.0781L33.5561 27.3875L31.7842 29.1485C30.6686 30.2641 30.6686 32.0688 31.7842 33.1844L39.7686 41.1688C40.9061 42.2844 42.6999 42.2734 43.8045 41.1688L45.9811 38.9922C46.2217 38.7516 46.1999 38.3688 45.9811 38.1719C45.7842 37.9641 33.392 25.5719 30.067 22.2469C30.2858 21.886 30.428 21.4594 30.428 21C30.428 20.5406 30.2967 20.1141 30.067 19.7531L34.3764 15.4438L36.1374 17.2047C37.242 18.3313 39.0686 18.3203 40.1733 17.2047L48.1577 9.22032C49.2623 8.12657 49.2842 6.31095 48.1577 5.18439L45.9811 3.00782C45.7514 2.78907 45.4014 2.77814 45.1608 3.00782L29.2358 18.9328C28.8748 18.7141 28.4483 18.5828 27.9889 18.5828C27.5295 18.5828 27.103 18.7141 26.742 18.9438L22.4327 14.6235L24.1936 12.8625C25.3202 11.7469 25.2983 9.93126 24.1936 8.82657L16.2092 0.831262C15.0936 -0.273425 13.2889 -0.273425 12.1733 0.831262L9.99673 3.00782C9.77798 3.23751 9.76704 3.59845 9.99673 3.83907L25.9217 19.7641C25.703 20.125 25.5717 20.5516 25.5717 21.011C25.5717 21.4703 25.703 21.886 25.9217 22.2578L21.6124 26.5672L19.8405 24.8063C18.7248 23.6906 16.9202 23.7016 15.8045 24.8063L7.80923 32.7906C6.68266 33.9281 6.71548 35.7328 7.80923 36.8266L9.99673 39.0031Z" fill="#FFFBE6"/>
<path d="M11.2763 9.26407C11.0029 9.08907 10.642 9.15469 10.467 9.42813C6.90133 14.8094 6.09196 21.4047 7.95133 27.3328C8.04977 27.6391 8.36696 27.8141 8.68414 27.7156C8.99039 27.6172 9.16539 27.2891 9.06696 26.9828C7.32789 21.4266 8.04977 15.1813 11.4404 10.0734C11.6263 9.8 11.5498 9.43907 11.2763 9.26407ZM44.7123 32.7578C44.9857 32.9328 45.3466 32.8563 45.5216 32.5938C49.142 27.1359 49.8748 20.5297 48.0373 14.6891C47.9388 14.3828 47.6107 14.2078 47.3045 14.3063C46.9982 14.4047 46.8232 14.7328 46.9216 15.0391C48.6388 20.5406 47.9716 26.775 44.5373 31.9594C44.3732 32.2219 44.4498 32.5828 44.7123 32.7578ZM22.0279 2.07813C27.6716 0.317192 33.8951 1.10469 38.9373 4.45157C39.1998 4.62657 39.5716 4.56094 39.7466 4.2875C39.9216 4.01407 39.856 3.65313 39.5826 3.47813C34.1357 -0.131246 27.5295 -0.864058 21.6779 0.962504C21.3716 1.06094 21.1966 1.38907 21.2951 1.69532C21.3935 2.00157 21.7216 2.17657 22.0279 2.07813ZM15.1154 13.1141C14.831 12.9609 14.481 13.0594 14.317 13.3328C12.6545 16.2859 12.0529 19.6547 12.4029 22.7391C12.4357 23.0672 12.742 23.2859 13.0482 23.2531C13.3654 23.2203 13.5951 22.925 13.5623 22.6078C13.2341 19.775 13.781 16.6469 15.3341 13.9125C15.4982 13.6281 15.3998 13.2672 15.1154 13.1141ZM40.8732 28.9078C41.1466 29.0609 41.5076 28.9734 41.6716 28.6891C43.3341 25.7578 43.9466 22.3781 43.5857 19.2719C43.5529 18.9547 43.2576 18.725 42.9404 18.7578C42.6232 18.7906 42.3935 19.0859 42.4263 19.4031C42.7654 22.2469 42.1966 25.3859 40.6545 28.1094C40.5013 28.3938 40.5998 28.7438 40.8732 28.9078ZM35.8966 8.12657C36.0607 7.84219 35.9623 7.49219 35.6779 7.32813C32.7685 5.67657 29.4107 5.04219 26.2498 5.41407C25.9326 5.44688 25.7029 5.74219 25.7357 6.05938C25.7685 6.37657 26.0529 6.61719 26.381 6.57344C29.3123 6.23438 32.4295 6.825 35.1091 8.34532C35.3935 8.50938 35.7435 8.4 35.8966 8.12657ZM41.4966 56C41.1466 51.8656 40.3154 46.4406 38.2482 42.6563C37.7341 41.7047 37.3076 40.8406 36.9466 40.0094L30.9748 34.0156C29.3998 32.4625 29.3998 29.8922 30.9748 28.3391L31.9154 27.3984L31.1279 26.6109H24.8826L20.8357 30.6578C20.6279 35.3609 20.2123 38.1172 17.7404 42.6563C15.6841 46.4406 14.3279 51.7125 14.5138 56H22.4216V48.5078C22.4216 45.4234 24.9263 42.9188 28.0107 42.9188C31.0951 42.9188 33.5998 45.4234 33.5998 48.5078V56H41.4966ZM27.9998 44.0891C25.5607 44.0891 23.581 46.0688 23.581 48.5078V56H32.4295V48.5078C32.4185 46.0688 30.4388 44.0891 27.9998 44.0891ZM25.5279 21.0109L22.5529 18.0359C20.4748 20.5953 21.131 23.2422 21.0107 24.3141L21.6123 24.9156L25.5279 21.0109ZM26.042 25.4406H29.9576L27.9998 23.4828L26.042 25.4406ZM27.9998 18.5281L30.6138 15.9141C28.9295 15.225 27.0263 15.2469 25.3857 15.9141L27.9998 18.5281ZM30.4716 21.0109L34.9013 25.4516H34.9888C34.8029 23.4063 35.6341 20.7484 33.4466 18.0359L30.4716 21.0109Z" fill="#FFFBE6"/>
</g>
<defs>
<clipPath id="clip0_336_339">
<rect width="56" height="56" fill="white"/>
</clipPath>
</defs>
</svg>
