<svg width="56" height="56" viewBox="0 0 56 56" fill="none" xmlns="http://www.w3.org/2000/svg">
<path d="M16.741 43.2145L17.3503 42.6792C16.8631 42.1153 16.76 41.3046 17.1254 40.6262L10.9519 42.7532C8.10998 43.7299 6.20215 46.4066 6.20215 49.4108V53.2835C6.20215 54.77 7.40954 55.9773 8.89595 55.9773H23.4726L16.4334 45.6008C15.9153 44.8432 16.0462 43.8153 16.741 43.2145ZM41.042 42.7532L34.8685 40.6262C35.0306 40.9281 35.1046 41.2695 35.0821 41.6114C35.0576 42.006 34.9035 42.3814 34.6436 42.6792L35.2587 43.2145C35.9506 43.8096 36.0845 44.8376 35.5634 45.6008L28.5271 55.9773H43.0951C44.5815 55.9773 45.7889 54.7699 45.7889 53.2835V49.4108C45.7889 46.4066 43.8811 43.7299 41.042 42.7532ZM28.0059 48.491C27.8976 47.6625 27.275 42.89 27.2713 42.8613L27.4762 42.5937L25.9984 41.3948L24.5176 42.5966L24.7169 42.8528C24.111 47.5263 24.5973 43.7775 23.9879 48.4881C24.558 50.7276 25.2736 53.0726 25.9984 55.2909C26.7155 53.096 27.4453 50.7004 28.0059 48.491Z" fill="#FFFBE6"/>
<path d="M29.1048 43.1832C29.381 41.3323 29.4864 39.6892 29.4352 38.197L25.9982 39.8088C24.2042 38.9688 23.1563 38.479 22.5555 38.197C22.5043 39.692 22.6096 41.3379 22.8858 43.1889L25.9982 40.6631L29.1048 43.1832Z" fill="#FFFBE6"/>
<path d="M34.8829 43.6445L33.7495 42.6535C33.7926 42.6148 34.4646 42.3543 34.5126 41.5743C34.527 41.369 34.49 41.1634 34.405 40.976C34.32 40.7886 34.1896 40.6253 34.0257 40.5008L30.6899 37.9583C30.606 37.5248 30.543 37.0258 30.5042 36.4625C31.548 35.2264 31.9638 33.7334 32.2716 32.1745C33.6638 31.8652 32.9262 31.2918 33.7153 30.0389C34.7405 28.3911 34.2691 26.9075 33.6327 26.5221L33.6413 26.5051C35.3554 21.556 34.3332 18.3411 30.3238 16.0773C28.0629 14.8015 24.8793 14.0583 22.5585 17.7601C22.5557 17.7631 22.5557 17.7688 22.5528 17.7715C22.5292 17.7655 22.5054 17.7598 22.4816 17.7544C19.5629 17.0607 17.9502 18.3151 17.5953 21.3053C17.4273 22.7377 17.8972 24.8705 18.4211 26.4935C17.7375 26.8429 17.2213 28.3407 18.2787 30.0387C18.9475 31.1059 18.537 31.4165 18.962 31.8355C19.1386 32.0035 19.4318 32.1031 19.6625 32.1601C20.001 33.8529 20.4183 35.335 21.4818 36.5451C21.4434 37.074 21.3837 37.5451 21.3049 37.9552L17.971 40.4978C17.6378 40.7512 17.4528 41.1498 17.4784 41.5684C17.531 42.343 18.2054 42.6158 18.2472 42.6533L17.1138 43.6443C16.8839 43.8438 16.7354 44.1209 16.6966 44.4228C16.6577 44.7247 16.7312 45.0304 16.9031 45.2816L24.0532 55.8204C24.0853 55.8688 24.1289 55.9085 24.1801 55.9358C24.2313 55.9631 24.2885 55.9773 24.3466 55.9771H25.1325C25.1885 55.9772 25.2438 55.9642 25.2938 55.9389C25.3438 55.9137 25.3871 55.877 25.4202 55.8318C25.4533 55.7865 25.4752 55.7339 25.4841 55.6785C25.493 55.6231 25.4887 55.5663 25.4714 55.5129C23.7663 50.2836 21.7997 43.5819 21.9857 38.182C22.0484 37.8794 22.0999 37.5486 22.1398 37.1883C22.6531 37.6178 23.2791 38.005 24.0533 38.3449C25.2497 38.8723 26.6876 38.8733 27.8862 38.3449C28.6812 37.9961 29.3225 37.5864 29.8464 37.1294C29.8856 37.4899 29.9386 37.835 30.0057 38.1596C30.0059 38.1626 30.0046 38.1654 30.0049 38.1684C30.1939 43.539 28.2421 50.2771 26.5252 55.51C26.508 55.5639 26.5036 55.6211 26.5125 55.677C26.5214 55.7329 26.5433 55.7859 26.5764 55.8318C26.6097 55.8768 26.6531 55.9133 26.703 55.9385C26.7529 55.9638 26.8081 55.977 26.8641 55.9771H27.6472C27.7056 55.9773 27.7632 55.9632 27.8149 55.9359C27.8666 55.9086 27.9107 55.8689 27.9434 55.8204L35.0935 45.2816C35.4496 44.7578 35.3584 44.0517 34.8829 43.6445ZM27.5988 37.6931C26.5794 38.143 25.3606 38.143 24.3412 37.6931C21.4139 36.4089 20.8472 34.5238 20.3148 31.793C20.3015 31.7215 20.2665 31.6558 20.2145 31.6048C20.1625 31.5539 20.0961 31.5202 20.0243 31.5083C19.7167 31.4599 19.5031 31.3688 19.4576 31.3232C19.3738 31.2394 19.532 30.6998 18.8824 29.6631C18.1488 28.4817 18.3806 27.4658 18.6603 27.1856C18.8055 27.5871 18.9508 27.9345 19.0789 28.2023C19.3352 28.7347 19.711 29.0423 20.1069 29.0451H20.1182C20.8471 29.0451 20.8842 28.2678 20.9071 27.8007V27.7722C20.9744 26.5073 21.3962 25.4544 20.9241 24.1301C20.9099 24.0931 20.9184 24.0674 20.9127 24.0674C21.7897 23.6745 22.5899 23.0394 23.1766 22.2649C23.1766 22.2649 23.1965 22.2706 23.2192 22.2935C24.9335 24.227 28.6951 25.2236 30.8051 24.3011C30.808 24.3039 30.8193 24.321 30.8164 24.3581C30.6464 25.7854 31.0608 26.6191 31.2891 28.1083C31.3461 28.4785 31.6706 28.7775 32.0665 28.8202C32.3854 28.8573 32.8011 28.7121 33.0004 28.1995C33.1233 27.8804 33.2467 27.5615 33.3707 27.2428C33.6673 27.614 33.7904 28.5696 33.1114 29.6633C32.0951 31.2893 33.0937 31.3412 31.9126 31.5198C31.7645 31.5455 31.6449 31.6594 31.6164 31.8045C31.1498 34.2675 30.5233 36.4116 27.5988 37.6931ZM45.8591 5.83463H43.9351C43.7667 5.83486 43.6025 5.78165 43.4662 5.68265C43.33 5.58365 43.2286 5.44397 43.1768 5.28371L42.5815 3.45223C42.5764 3.43746 42.5623 3.39294 42.5 3.39294C42.438 3.39294 42.4232 3.43746 42.4185 3.45223L41.8232 5.28371C41.7714 5.44402 41.6701 5.58376 41.5338 5.68278C41.3975 5.78179 41.2333 5.83497 41.0649 5.83463H39.1411C39.1258 5.83463 39.0788 5.83463 39.0596 5.89391C39.0404 5.95319 39.0782 5.98065 39.0908 5.98962L40.6464 7.11946C40.7829 7.21814 40.8846 7.35762 40.9368 7.5178C40.989 7.67799 40.9889 7.8506 40.9367 8.01076L40.3424 9.84334C40.3374 9.8581 40.3233 9.90229 40.3733 9.93904C40.4236 9.97546 40.4618 9.94823 40.4739 9.93904L42.0317 8.80755C42.1678 8.70836 42.3318 8.65491 42.5002 8.65491C42.6686 8.65491 42.8326 8.70836 42.9686 8.80755L44.5281 9.93904C44.5406 9.9479 44.5788 9.97524 44.6285 9.93904C44.6788 9.90229 44.6644 9.8581 44.6597 9.84334L44.0644 8.0113C44.012 7.85115 44.0117 7.67848 44.0638 7.5182C44.1158 7.35792 44.2174 7.2183 44.3539 7.11946L45.9097 5.98962C45.922 5.98076 45.9601 5.95319 45.9406 5.89391C45.9211 5.83463 45.8744 5.83463 45.8591 5.83463ZM36.1924 5.83463H34.2686C34.1001 5.83494 33.9358 5.78173 33.7995 5.68268C33.6632 5.58363 33.5618 5.44385 33.51 5.28349L32.9149 3.45233C32.9102 3.43757 32.8954 3.39305 32.8334 3.39305C32.7711 3.39305 32.757 3.43757 32.7519 3.45201L32.1566 5.28371C32.1048 5.44397 32.0034 5.58365 31.8672 5.68265C31.7309 5.78165 31.5667 5.83486 31.3983 5.83463H29.4743C29.459 5.83463 29.4123 5.83463 29.3931 5.89391C29.3737 5.95319 29.4117 5.98065 29.424 5.98984L30.9798 7.11935C31.1162 7.21818 31.2177 7.35768 31.2698 7.51782C31.322 7.67796 31.322 7.85049 31.2699 8.01065L30.6757 9.84323C30.671 9.85766 30.6565 9.90218 30.7068 9.9386C30.7571 9.97557 30.795 9.94801 30.8075 9.93893L32.365 8.80744C32.501 8.70823 32.6651 8.65478 32.8335 8.65478C33.0019 8.65478 33.166 8.70823 33.3021 8.80744L34.8613 9.93893C34.8741 9.94779 34.912 9.97448 34.962 9.93893C35.0123 9.90218 34.9978 9.85777 34.9931 9.84323L34.3975 8.01119C34.3975 8.01087 34.3971 8.01087 34.3971 8.01087C34.3451 7.85073 34.3451 7.67822 34.3971 7.51807C34.4491 7.35792 34.5505 7.21835 34.6867 7.11935L36.2429 5.98951C36.2553 5.98065 36.2932 5.95309 36.274 5.8938C36.2547 5.83463 36.2077 5.83463 36.1924 5.83463ZM16.8594 5.83463H14.9356C14.7672 5.83486 14.603 5.78165 14.4668 5.68265C14.3305 5.58365 14.2292 5.44397 14.1773 5.28371L13.582 3.45223C13.577 3.43746 13.5629 3.39294 13.5005 3.39294C13.4382 3.39294 13.4241 3.43746 13.419 3.4519L12.8237 5.2836C12.7719 5.44386 12.6705 5.58354 12.5343 5.68254C12.398 5.78154 12.2338 5.83476 12.0654 5.83452H10.1415C10.1262 5.83452 10.0791 5.83452 10.06 5.8938C10.0409 5.95309 10.0786 5.98054 10.0909 5.98973L11.6467 7.11924C11.7831 7.21807 11.8846 7.35757 11.9367 7.51771C11.9888 7.67785 11.9888 7.85039 11.9368 8.01054L11.3428 9.84312C11.3377 9.85788 11.3236 9.90207 11.3736 9.93882C11.4237 9.97524 11.4621 9.94801 11.4742 9.93882L13.0317 8.80734C13.1678 8.70812 13.3319 8.65467 13.5003 8.65467C13.6687 8.65467 13.8328 8.70812 13.9689 8.80734L15.5281 9.93882C15.5406 9.94768 15.5787 9.97437 15.6287 9.93882C15.679 9.90207 15.6646 9.85766 15.6599 9.84312L15.0646 8.01109C15.0122 7.85093 15.012 7.67826 15.064 7.51798C15.116 7.3577 15.2176 7.21808 15.3541 7.11924L16.9097 5.9894C16.9222 5.98054 16.96 5.95298 16.9409 5.89369C16.9216 5.83463 16.8746 5.83463 16.8594 5.83463Z" fill="#FFFBE6"/>
<path d="M48.3457 0.0227661H7.65426C5.59823 0.0227661 3.92676 1.69708 3.92676 3.75027V9.60194C3.92676 11.6579 5.59823 13.3294 7.65426 13.3294H37.152V22.8145C37.152 24.0114 38.7012 24.4916 39.3731 23.4837L46.0962 13.3293H48.3457C50.4016 13.3293 52.0732 11.6578 52.0732 9.60183V3.75027C52.0732 1.69708 50.4016 0.0227661 48.3457 0.0227661ZM17.3276 6.56569L15.7723 7.6952C15.7576 7.70581 15.7467 7.72079 15.7411 7.73798C15.7355 7.75518 15.7355 7.77371 15.7411 7.79091L16.3364 9.62294C16.4452 9.95774 16.3317 10.3076 16.0469 10.5145C15.7627 10.7215 15.3948 10.7217 15.1095 10.515L13.5502 9.38352C13.5357 9.3727 13.518 9.36686 13.4999 9.36686C13.4818 9.36686 13.4641 9.3727 13.4496 9.38352L11.8921 10.5148C11.6074 10.7217 11.2395 10.7217 10.9546 10.5148C10.6702 10.3078 10.5564 9.95806 10.6651 9.62327L11.2588 7.79123C11.2645 7.77408 11.2646 7.75555 11.259 7.73834C11.2535 7.72113 11.2426 7.70614 11.228 7.69553L9.67212 6.56569C9.38741 6.35853 9.27366 6.00864 9.38238 5.67384C9.4911 5.33905 9.78893 5.1227 10.141 5.1227H12.0648C12.0829 5.12269 12.1005 5.11694 12.1152 5.10629C12.1298 5.09565 12.1407 5.08064 12.1463 5.06342L12.7416 3.23194C12.8501 2.89736 13.1479 2.68102 13.4999 2.68102C13.8519 2.68102 14.1498 2.89736 14.2582 3.23216L14.8535 5.06331C14.8591 5.08053 14.87 5.09554 14.8847 5.10618C14.8993 5.11683 14.9169 5.12258 14.935 5.12259H16.8588C17.2109 5.12259 17.5087 5.33894 17.6174 5.67373C17.7264 6.00875 17.6126 6.35886 17.3276 6.56569ZM26.9943 6.56569L25.4386 7.6952C25.424 7.70581 25.4131 7.72079 25.4075 7.73798C25.4019 7.75518 25.4019 7.77371 25.4075 7.79091L26.0028 9.62294C26.1118 9.95752 25.9983 10.3073 25.7136 10.5145C25.4293 10.7215 25.0615 10.7217 24.7761 10.515L23.2167 9.38352C23.2021 9.3728 23.1845 9.36702 23.1665 9.36702C23.1484 9.36702 23.1308 9.3728 23.1163 9.38352L21.5588 10.5148C21.2743 10.7212 20.9063 10.7219 20.6213 10.5148C20.3368 10.3078 20.2229 9.95839 20.3313 9.62348L20.9255 7.79123C20.9312 7.77404 20.9312 7.75548 20.9256 7.73826C20.92 7.72105 20.909 7.70607 20.8943 7.69553L19.3387 6.56569C19.054 6.35875 18.9399 6.00864 19.0486 5.67384C19.1573 5.33905 19.4552 5.1227 19.8072 5.1227H21.731C21.7491 5.12279 21.7667 5.11712 21.7813 5.10652C21.7959 5.09592 21.8067 5.08093 21.8122 5.06375L22.4079 3.23205C22.5166 2.89725 22.8144 2.68113 23.1661 2.68113H23.1665C23.5186 2.68113 23.8161 2.89747 23.9246 3.23227L24.5199 5.06342C24.5255 5.08064 24.5365 5.09563 24.5511 5.10628C24.5658 5.11692 24.5835 5.12267 24.6016 5.1227H26.5254C26.8775 5.1227 27.1753 5.33905 27.284 5.67384C27.3929 6.00875 27.279 6.35886 26.9943 6.56569ZM36.6606 6.56569L35.105 7.69531C35.0904 7.70599 35.0795 7.72102 35.074 7.73826C35.0684 7.75549 35.0685 7.77404 35.0741 7.79123L35.6695 9.62294C35.7782 9.95774 35.6648 10.3076 35.3799 10.5145C35.0957 10.7215 34.7279 10.7217 34.4425 10.515L32.8832 9.38352C32.8687 9.3728 32.851 9.36702 32.8329 9.36702C32.8148 9.36702 32.7972 9.3728 32.7826 9.38352L31.2251 10.5148C30.9404 10.7217 30.5727 10.7217 30.288 10.5148C30.0033 10.3082 29.8892 9.95839 29.9977 9.62348L30.5919 7.79123C30.5976 7.77408 30.5977 7.75555 30.5922 7.73834C30.5866 7.72113 30.5757 7.70614 30.5611 7.69553L29.0052 6.56569C28.7205 6.35853 28.6068 6.00864 28.7155 5.67363C28.8242 5.33905 29.1221 5.1227 29.4738 5.1227H31.3978C31.4159 5.12269 31.4336 5.11694 31.4482 5.10629C31.4628 5.09565 31.4737 5.08064 31.4793 5.06342L32.0746 3.23194C32.1831 2.89736 32.4806 2.68102 32.8327 2.68102H32.833C33.1848 2.68102 33.4826 2.89703 33.5913 3.23194L34.1867 5.06342C34.1922 5.08066 34.2031 5.09568 34.2177 5.10634C34.2324 5.11699 34.25 5.12272 34.2681 5.1227H36.1919C36.544 5.1227 36.8419 5.33905 36.9506 5.67384C37.0594 6.00875 36.9456 6.35886 36.6606 6.56569ZM46.3273 6.56547L44.7716 7.69531C44.757 7.70592 44.7461 7.7209 44.7405 7.73809C44.7349 7.75529 44.7349 7.77382 44.7405 7.79102L45.3358 9.62305C45.4449 9.95763 45.3313 10.3074 45.0466 10.5146C44.7624 10.7216 44.3945 10.7218 44.1092 10.5151L42.5497 9.38363C42.5351 9.37291 42.5176 9.36713 42.4995 9.36713C42.4814 9.36713 42.4638 9.37291 42.4493 9.38363L40.8915 10.5149C40.6068 10.7218 40.2388 10.7218 39.954 10.5149C39.6695 10.308 39.5558 9.95817 39.6645 9.62338L40.2585 7.79134C40.2642 7.77415 40.2642 7.75559 40.2586 7.73837C40.253 7.72115 40.2421 7.70618 40.2273 7.69564L38.6717 6.5658C38.3867 6.35886 38.2729 6.00875 38.3816 5.67395C38.4903 5.33916 38.7882 5.12281 39.1403 5.12281H41.0641C41.0821 5.1229 41.0997 5.11723 41.1143 5.10663C41.1289 5.09603 41.1397 5.08104 41.1452 5.06386L41.7409 3.23216C41.8496 2.89736 42.1474 2.68123 42.4992 2.68123H42.4995C42.8516 2.68123 43.1491 2.89758 43.2576 3.23238L43.8529 5.06353C43.8585 5.08075 43.8694 5.09576 43.884 5.1064C43.8987 5.11705 43.9163 5.1228 43.9344 5.12281H45.8584C46.2101 5.12281 46.508 5.33916 46.6167 5.67373C46.7257 6.00875 46.612 6.35853 46.3273 6.56547Z" fill="#FFFBE6"/>
<path d="M26.5256 5.83463H24.6019C24.4334 5.8349 24.2691 5.78171 24.1328 5.68271C23.9965 5.58371 23.8951 5.444 23.8432 5.28371L23.2479 3.45223C23.2432 3.43746 23.2288 3.39294 23.1664 3.39294C23.1044 3.39294 23.0896 3.43746 23.0849 3.45223L22.4896 5.28371C22.4379 5.44402 22.3365 5.58376 22.2003 5.68278C22.064 5.78179 21.8998 5.83497 21.7313 5.83463H19.8075C19.7922 5.83463 19.7452 5.83463 19.726 5.89391C19.7069 5.95319 19.7446 5.98065 19.7572 5.98962L21.3128 7.11946C21.4494 7.21814 21.5511 7.35762 21.6032 7.5178C21.6554 7.67799 21.6554 7.8506 21.6031 8.01076L21.0089 9.84334C21.0042 9.85777 20.9897 9.90229 21.0401 9.93904C21.0901 9.97524 21.1279 9.9479 21.1407 9.93871L22.6982 8.80744C22.8342 8.70825 22.9983 8.6548 23.1666 8.6548C23.335 8.6548 23.499 8.70825 23.6351 8.80744L25.1946 9.93893C25.207 9.94779 25.2452 9.97513 25.295 9.93893C25.3453 9.90218 25.3308 9.85799 25.3261 9.84323L24.7308 8.01119C24.6783 7.85104 24.6781 7.67836 24.7301 7.51806C24.7822 7.35776 24.8838 7.21814 25.0203 7.11935L26.5762 5.98951C26.5886 5.98065 26.6265 5.95309 26.6073 5.8938C26.5879 5.83463 26.5408 5.83463 26.5256 5.83463Z" fill="#FFFBE6"/>
</svg>
