<svg width="56" height="56" viewBox="0 0 56 56" fill="none" xmlns="http://www.w3.org/2000/svg">
<g clip-path="url(#clip0_336_367)">
<path d="M41.7126 47.5233C40.5451 52.0006 36.5044 55.2025 31.7268 55.2025H21.8543C16.1586 55.2025 11.5229 50.5668 11.5229 44.8711C11.5097 28.8398 11.5459 32.3958 11.5002 30.7538C11.3574 30.5163 10.9982 29.4603 9.82845 27.8464C8.72901 28.2772 7.70319 28.4868 6.75119 28.4868C2.27458 28.4868 0.195687 23.5391 0.00143651 19.1584C-0.00993849 19.0054 0.0467178 18.8581 0.154452 18.7447C0.206967 18.6892 0.270237 18.645 0.3404 18.6148C0.410562 18.5846 0.486144 18.569 0.56253 18.569C4.98861 18.569 7.99795 19.6515 9.51116 21.7937C10.7864 23.5959 10.6332 25.6474 10.4122 26.7299C10.7749 27.2004 11.1263 27.6991 11.4436 28.2318C11.3357 21.1669 11.6162 21.7247 11.812 19.1244C3.10834 18.0276 3.97022 8.8352 7.7768 1.10829C7.85609 0.960856 7.99215 0.847544 8.15644 0.813638C8.32083 0.773935 8.49648 0.80795 8.62686 0.909888C18.0013 8.02725 17.4295 15.0648 12.9624 18.9264C12.7546 21.9393 12.4716 21.0526 12.5827 28.3115C12.9228 27.7504 13.2912 27.2233 13.6652 26.7303C13.4499 25.6478 13.2968 23.5962 14.5719 21.7941C16.0851 19.6518 19.0945 18.5694 23.5207 18.5694C23.6737 18.5694 23.821 18.6317 23.9286 18.745C24.0363 18.8583 24.093 19.0058 24.0873 19.1588C23.8943 23.498 21.8354 28.4872 17.3319 28.4872C16.3855 28.4872 15.3598 28.2775 14.2603 27.8525C13.6426 28.6968 13.0873 29.6264 12.6338 30.652C12.6791 32.599 12.6429 28.4894 12.6565 44.8714C12.6565 49.9437 16.7822 54.0694 21.8546 54.0694H31.727C35.8755 54.0694 39.4005 51.3547 40.5396 47.5237H41.7126V47.5233ZM35.5238 5.3247V8.94611H30.7916V5.3247C30.7916 4.02117 31.8514 2.95575 33.1549 2.95575C34.4584 2.95586 35.5238 4.02128 35.5238 5.3247ZM30.7917 10.0796H35.5239V16.4779H30.7917V10.0796ZM52.1858 5.3247V8.94611H47.4594V5.3247C47.4594 4.02117 48.5192 2.95575 49.8226 2.95575C51.1259 2.95586 52.1858 4.02128 52.1858 5.3247ZM47.4591 10.0796H52.1856V16.4779H47.4591V10.0796Z" fill="#FFFBE6"/>
<path d="M53.1668 17.6113H29.8062C28.2478 17.6113 26.9727 18.8808 26.9727 20.4449V25.3787H56.0006V20.4449C56.0005 18.8807 54.7309 17.6113 53.1668 17.6113ZM41.4877 37.635C42.9955 33.3292 45.4015 30.9919 45.8095 30.4192H37.168C37.5945 31.0181 39.9735 33.31 41.4877 37.635Z" fill="#FFFBE6"/>
<path d="M37.409 42.0619C36.3981 42.2546 35.6318 43.1408 35.6318 44.2023C35.6318 45.4094 36.6123 46.39 37.8194 46.39H45.1642C46.3713 46.39 47.3518 45.4095 47.3518 44.2023C47.3518 43.1369 46.5796 42.249 45.5634 42.0607C46.3429 35.9345 50.2438 33.7046 55.6573 26.5121H27.3203C32.7641 33.7492 36.6309 35.944 37.409 42.0619ZM35.4519 29.611C35.4978 29.5137 35.5703 29.4315 35.6611 29.374C35.7519 29.3164 35.8572 29.2858 35.9647 29.2858H47.0125C47.12 29.2858 47.2253 29.3165 47.3161 29.3741C47.4068 29.4317 47.4794 29.514 47.5252 29.6112C47.571 29.7085 47.5882 29.8168 47.5748 29.9235C47.5614 30.0301 47.5179 30.1308 47.4495 30.2137C46.6125 31.4097 43.3987 34.2191 42.0376 39.7563C42.0073 39.8794 41.9366 39.9887 41.8369 40.067C41.7371 40.1452 41.614 40.1877 41.4872 40.1877C41.3605 40.1877 41.2373 40.1452 41.1376 40.067C41.0378 39.9887 40.9671 39.8794 40.9368 39.7563C39.5784 34.2283 36.3456 31.3832 35.5277 30.2135C35.4592 30.1306 35.4157 30.0299 35.4023 29.9232C35.3889 29.8165 35.4061 29.7082 35.4519 29.611Z" fill="#FFFBE6"/>
</g>
<defs>
<clipPath id="clip0_336_367">
<rect width="56" height="56" fill="white"/>
</clipPath>
</defs>
</svg>
