<svg width="56" height="56" viewBox="0 0 56 56" fill="none" xmlns="http://www.w3.org/2000/svg">
<g clip-path="url(#clip0_336_301)">
<path d="M15.9471 7.33903C23.0564 6.19059 30.2752 9.95309 33.4142 16.614C33.5564 16.9093 33.9064 17.0297 34.1908 16.8875C34.4861 16.7562 34.6064 16.4062 34.4642 16.1109C31.2049 9.20934 23.6689 4.94372 15.7611 6.17966C15.4439 6.23434 15.2252 6.52966 15.2799 6.84684C15.3346 7.17497 15.6299 7.39372 15.9471 7.33903ZM28.7549 29.4547C27.8142 31.1062 26.4689 32.5281 24.8502 33.5562C24.5767 33.7203 24.5002 34.0922 24.6752 34.3656C24.8502 34.639 25.2111 34.7156 25.4846 34.5406C27.2564 33.414 28.7439 31.8609 29.783 30.0343C29.9361 29.75 29.8377 29.4 29.5642 29.2359C29.2689 29.0718 28.9189 29.1703 28.7549 29.4547Z" fill="#FFFBE6"/>
<path d="M27.6386 15.214C27.8683 14.9843 27.8683 14.6234 27.6277 14.3937C24.9042 11.6921 21.2183 10.4234 17.7402 10.664C17.423 10.6859 17.1714 10.9703 17.1933 11.2874C17.2152 11.6046 17.4995 11.8453 17.8167 11.8343C20.923 11.5937 24.3245 12.7749 26.8074 15.2249C27.0261 15.4328 27.387 15.4546 27.6386 15.214ZM34.1683 50.2577C34.4855 50.5749 34.9777 50.6296 35.3714 50.3452L40.8511 46.2656C42.4261 45.0952 42.1636 43.3671 42.1745 43.3124C42.1199 43.3015 40.5558 43.4327 39.3089 42.0327L34.0699 49.0546C33.8074 49.4265 33.8402 49.9296 34.1683 50.2577ZM45.7949 40.6109L54.0855 41.5952C54.512 41.6609 54.9605 41.3874 55.0917 40.9171C55.212 40.4687 54.9933 40.0093 54.5667 39.8234L48.2886 37.1218C47.3152 36.6952 46.1777 36.7827 45.2699 37.3296C45.9152 38.2265 46.1558 39.4296 45.7949 40.6109ZM23.5917 20.6937C24.3902 22.0718 24.5542 23.6468 24.1933 25.0249L42.437 27.1796C43.148 27.2453 43.6511 26.8296 43.8042 26.2609C43.9683 25.6374 43.673 25.0249 43.0824 24.7624L30.537 19.3484C26.7199 17.7078 24.0949 20.4749 23.5917 20.6937ZM14.2949 27.6718L2.82142 43.039C2.4386 43.5531 2.49329 44.2421 2.94173 44.6906C3.37923 45.1281 4.05735 45.2156 4.59329 44.8109L15.5636 36.6515C19.0417 34.0593 17.7402 30.2203 17.8167 29.4218C16.4386 29.2578 15.2136 28.6234 14.2949 27.6718ZM38.6964 37.9531C39.123 36.9796 39.9652 36.2249 40.9933 35.8859L37.5917 27.9781C37.4167 27.5515 36.9574 27.3328 36.5089 27.4421C36.0605 27.5624 35.7652 27.9781 35.8199 28.4484L36.6183 35.2406C36.848 37.3078 38.6308 37.9093 38.6964 37.9531Z" fill="#FFFBE6"/>
<path d="M26.1514 56H10.9155C13.9342 49.5141 14.9186 43.0828 15.5311 38.1281C15.717 37.9094 19.5452 35.875 19.1405 31.1719L18.9873 29.4437C19.5889 29.3891 20.1577 29.2469 20.6936 29.0391C21.2842 38.1719 22.2686 47.7422 26.1514 56ZM46.3967 56H38.0842C39.528 53.1672 39.8452 50.2797 40.1623 48.2344L41.5405 47.2062C43.6295 45.6531 43.3123 43.1922 43.3233 43.1266C43.4108 43.0937 43.4983 43.0719 43.5748 43.0281C43.8811 47.1953 44.5811 52.1719 46.3967 56ZM23.2092 23.6141C23.2092 21.0219 21.0983 18.9219 18.517 18.9219C15.9358 18.9219 13.8248 21.0328 13.8248 23.6141C13.8248 26.1953 15.9358 28.3062 18.517 28.3062C21.0983 28.2953 23.2092 26.1953 23.2092 23.6141ZM5.08578 34.125C5.34828 33.9281 5.40296 33.5672 5.21703 33.3047C1.17015 27.7703 1.1264 20.6172 4.37484 15.1703C4.5389 14.8969 4.4514 14.5359 4.16703 14.3719C3.89359 14.2078 3.53265 14.2953 3.36859 14.5797C-0.186099 20.5406 0.0217139 28.1859 4.26546 33.9937C4.46234 34.2672 4.83421 34.3109 5.08578 34.125Z" fill="#FFFBE6"/>
<path d="M42.1525 42.1422C43.6083 42.1422 44.7885 40.962 44.7885 39.5062C44.7885 38.0505 43.6083 36.8703 42.1525 36.8703C40.6968 36.8703 39.5166 38.0505 39.5166 39.5062C39.5166 40.962 40.6968 42.1422 42.1525 42.1422Z" fill="#FFFBE6"/>
<path d="M7.99483 14.9953C8.50889 19.3703 12.5995 20.125 13.4308 20.7047C14.0761 19.5672 15.0933 18.6703 16.3183 18.1781L8.83702 0.776533C8.58545 0.185908 7.97295 -0.120342 7.36045 0.0437207C6.72608 0.207783 6.34327 0.776533 6.41983 1.42185L7.99483 14.9953ZM7.99483 30.1765C8.2792 30.0234 8.37764 29.6625 8.21358 29.3781C6.73702 26.775 6.37608 23.7234 6.9667 21.1203C7.03233 20.8031 6.83545 20.4859 6.51827 20.4203C6.20108 20.3547 5.88389 20.5515 5.81827 20.8687C5.16202 23.8547 5.59952 27.1359 7.18545 29.9468C7.37139 30.2531 7.74327 30.3297 7.99483 30.1765Z" fill="#FFFBE6"/>
</g>
<defs>
<clipPath id="clip0_336_301">
<rect width="56" height="56" fill="white"/>
</clipPath>
</defs>
</svg>
