<svg width="159" height="34" viewBox="0 0 159 34" fill="none" xmlns="http://www.w3.org/2000/svg">
<path d="M33.2887 30.6C33.2887 30.9117 33.213 31.1978 33.0615 31.4585C32.9101 31.7135 32.7082 31.9175 32.4558 32.0705C32.2034 32.2235 31.9202 32.3 31.6061 32.3H26.4912V31.45H31.6061C31.8417 31.45 32.0408 31.3678 32.2034 31.2035C32.366 31.0335 32.4474 30.8323 32.4474 30.6C32.4474 30.3677 32.366 30.1693 32.2034 30.005C32.0408 29.835 31.8417 29.75 31.6061 29.75H28.1738C27.8653 29.75 27.5821 29.6735 27.3241 29.5205C27.0717 29.3675 26.8698 29.1635 26.7184 28.9085C26.5669 28.6478 26.4912 28.3617 26.4912 28.05C26.4912 27.7383 26.5669 27.455 26.7184 27.2C26.8698 26.9393 27.0717 26.7325 27.3241 26.5795C27.5821 26.4265 27.8653 26.35 28.1738 26.35H32.868V27.2H28.1738C27.9438 27.2 27.7447 27.285 27.5764 27.455C27.4138 27.6193 27.3325 27.8177 27.3325 28.05C27.3325 28.2823 27.4138 28.4835 27.5764 28.6535C27.7447 28.8178 27.9438 28.9 28.1738 28.9H31.6061C31.9202 28.9 32.2034 28.9765 32.4558 29.1295C32.7082 29.2825 32.9101 29.4893 33.0615 29.75C33.213 30.005 33.2887 30.2883 33.2887 30.6ZM39.04 29.325C39.04 29.631 38.9643 29.9143 38.8129 30.175C38.6614 30.4357 38.4568 30.6453 38.1987 30.804C37.9464 30.957 37.666 31.0335 37.3575 31.0335H35.0187V30.192H37.3575C37.593 30.192 37.7922 30.107 37.9548 29.937C38.123 29.7613 38.2072 29.5573 38.2072 29.325C38.2072 29.087 38.123 28.8858 37.9548 28.7215C37.7922 28.5515 37.593 28.4665 37.3575 28.4665H34.5813V32.3H33.7484V27.625H37.3575C37.666 27.625 37.9464 27.7015 38.1987 27.8545C38.4568 28.0075 38.6614 28.2143 38.8129 28.475C38.9643 28.73 39.04 29.0133 39.04 29.325ZM40.2237 32.3H39.3908V27.625H40.2237V32.3ZM45.2643 32.3C45.2643 31.926 45.1914 31.569 45.0456 31.229C44.9053 30.8833 44.7146 30.5632 44.4735 30.2685C44.2323 29.9738 43.9631 29.7075 43.6659 29.4695C43.3686 29.2315 43.063 29.0332 42.7489 28.8745C42.4404 28.7158 42.1432 28.6025 41.8572 28.5345V32.3H41.0159V27.625H41.4702V27.6335C41.773 27.6505 42.0927 27.7185 42.4292 27.8375C42.7713 27.9508 43.1134 28.1095 43.4556 28.3135C43.7976 28.5175 44.123 28.7555 44.4315 29.0275C44.7455 29.2995 45.0231 29.6027 45.2643 29.937V27.625H46.1056V32.3H45.2643ZM52.6656 32.3H51.8243V27.2H48.8462V26.35H55.6437V27.2H52.6656V32.3ZM60.437 29.954C60.437 30.3847 60.3473 30.7785 60.1677 31.1355C59.9939 31.4868 59.7471 31.7702 59.4274 31.9855C59.1077 32.1952 58.7348 32.3 58.3085 32.3H56.8447C56.4185 32.3 56.0427 32.1952 55.7174 31.9855C55.3977 31.7702 55.1482 31.4868 54.9687 31.1355C54.7949 30.7785 54.7079 30.3847 54.7079 29.954C54.7079 29.5233 54.7949 29.1323 54.9687 28.781C55.1482 28.4297 55.3977 28.1492 55.7174 27.9395C56.0427 27.7298 56.4185 27.625 56.8447 27.625H58.3085C58.7348 27.625 59.1077 27.7298 59.4274 27.9395C59.7471 28.1492 59.9939 28.4297 60.1677 28.781C60.3473 29.1323 60.437 29.5233 60.437 29.954ZM59.5957 29.954C59.5957 29.682 59.5452 29.4327 59.4443 29.206C59.3433 28.9793 59.1947 28.8008 58.9984 28.6705C58.8078 28.5345 58.5777 28.4665 58.3085 28.4665H56.8447C56.5755 28.4665 56.3428 28.5345 56.1465 28.6705C55.9558 28.8008 55.8072 28.9793 55.7006 29.206C55.5997 29.4327 55.5492 29.682 55.5492 29.954C55.5492 30.226 55.5997 30.4753 55.7006 30.702C55.8072 30.9287 55.9558 31.11 56.1465 31.246C56.3428 31.382 56.5755 31.45 56.8447 31.45H58.3085C58.5777 31.45 58.8078 31.382 58.9984 31.246C59.1947 31.11 59.3433 30.9287 59.4443 30.702C59.5452 30.4753 59.5957 30.226 59.5957 29.954ZM66.4334 29.9455C66.4334 30.3818 66.3437 30.7785 66.1642 31.1355C65.9848 31.4925 65.7324 31.7758 65.4071 31.9855C65.0818 32.1952 64.7032 32.3 64.2714 32.3H62.2019V31.4415H64.2714C64.5462 31.4415 64.7789 31.3763 64.9696 31.246C65.1659 31.11 65.3173 30.9287 65.4239 30.702C65.5305 30.4753 65.5838 30.2232 65.5838 29.9455C65.5838 29.6678 65.5305 29.4185 65.4239 29.1975C65.3173 28.9765 65.1659 28.8008 64.9696 28.6705C64.7789 28.5345 64.5462 28.4665 64.2714 28.4665H61.8065V32.3H60.9484V27.608H64.2714C64.7032 27.608 65.0818 27.7128 65.4071 27.9225C65.7324 28.1322 65.9848 28.4127 66.1642 28.764C66.3437 29.1153 66.4334 29.5092 66.4334 29.9455ZM72.2357 32.3H71.3944V31.0165H68.1555V30.1495H71.3944V28.4665H69.2071C68.9323 28.4665 68.6827 28.5345 68.4584 28.6705C68.234 28.8065 68.0546 28.9878 67.92 29.2145C67.7854 29.4355 67.7181 29.6848 67.7181 29.9625V32.3H66.8684V29.9625C66.8684 29.6395 66.9273 29.3363 67.045 29.053C67.1684 28.764 67.3366 28.5118 67.5498 28.2965C67.7685 28.0812 68.0181 27.914 68.2985 27.795C68.5846 27.6703 68.8874 27.608 69.2071 27.608H72.2357V32.3ZM78.1618 30.923C78.1618 31.178 78.0861 31.4103 77.9347 31.62C77.7833 31.824 77.5786 31.9883 77.3206 32.113C77.0682 32.2377 76.7878 32.3 76.4793 32.3H72.8618V31.45H76.4793C76.7093 31.45 76.9056 31.399 77.0682 31.297C77.2364 31.195 77.3206 31.0703 77.3206 30.923V30.7105H74.536C74.2276 30.7105 73.9471 30.634 73.6947 30.481C73.4423 30.328 73.2404 30.124 73.089 29.869C72.9375 29.6083 72.8618 29.3222 72.8618 29.0105V27.625H73.6947V29.0105C73.6947 29.2485 73.776 29.4497 73.9387 29.614C74.1069 29.7783 74.306 29.8605 74.536 29.8605H77.3206V27.625H78.1618V30.923ZM80.0381 31.688C80.0325 31.8693 79.9988 32.0422 79.9372 32.2065C79.8811 32.3708 79.8249 32.5012 79.7689 32.5975C79.7128 32.6995 79.6848 32.7505 79.6848 32.7505L79.1464 32.742C79.1464 32.742 79.166 32.7023 79.2053 32.623C79.2445 32.5437 79.281 32.436 79.3146 32.3C79.1632 32.2773 79.0341 32.2065 78.9276 32.0875C78.8267 31.9628 78.7762 31.8212 78.7762 31.6625C78.7762 31.4868 78.8379 31.3367 78.9613 31.212C79.0846 31.0873 79.2333 31.025 79.4072 31.025C79.581 31.025 79.7296 31.0902 79.853 31.2205C79.9764 31.3452 80.0381 31.501 80.0381 31.688ZM90.0382 30.6C90.0382 30.9117 89.9625 31.1978 89.8111 31.4585C89.6596 31.7135 89.4577 31.9175 89.2054 32.0705C88.953 32.2235 88.6695 32.3 88.3557 32.3H83.2407V31.45H88.3557C88.5912 31.45 88.7906 31.3678 88.953 31.2035C89.1153 31.0335 89.1969 30.8323 89.1969 30.6C89.1969 30.3677 89.1153 30.1693 88.953 30.005C88.7906 29.835 88.5912 29.75 88.3557 29.75H84.9233C84.6145 29.75 84.3319 29.6735 84.0736 29.5205C83.8212 29.3675 83.6193 29.1635 83.4679 28.9085C83.3165 28.6478 83.2407 28.3617 83.2407 28.05C83.2407 27.7383 83.3165 27.455 83.4679 27.2C83.6193 26.9393 83.8212 26.7325 84.0736 26.5795C84.3319 26.4265 84.6145 26.35 84.9233 26.35H89.6176V27.2H84.9233C84.6936 27.2 84.4942 27.285 84.326 27.455C84.1636 27.6193 84.082 27.8177 84.082 28.05C84.082 28.2823 84.1636 28.4835 84.326 28.6535C84.4942 28.8178 84.6936 28.9 84.9233 28.9H88.3557C88.6695 28.9 88.953 28.9765 89.2054 29.1295C89.4577 29.2825 89.6596 29.4893 89.8111 29.75C89.9625 30.005 90.0382 30.2883 90.0382 30.6ZM95.79 32.3H94.9487V31.0165H91.7098V30.1495H94.9487V28.4665H92.7614C92.4863 28.4665 92.2365 28.5345 92.0127 28.6705C91.7881 28.8065 91.6089 28.9878 91.4743 29.2145C91.3397 29.4355 91.2724 29.6848 91.2724 29.9625V32.3H90.4227V29.9625C90.4227 29.6395 90.4816 29.3363 90.5993 29.053C90.7222 28.764 90.8904 28.5118 91.1041 28.2965C91.3228 28.0812 91.5718 27.914 91.8528 27.795C92.1389 27.6703 92.4417 27.608 92.7614 27.608H95.79V32.3ZM101.792 27.625L99.4276 32.3H98.4686L96.0878 27.625H97.0468L98.9481 31.3565L100.841 27.625H101.792ZM106.916 32.3H102.087V27.608H106.916V28.4665H102.937V31.4415H106.916V32.3ZM106.377 30.362H103.332V29.5035H106.377V30.362ZM113.194 32.3H112.353V27.2H109.375V26.35H116.172V27.2H113.194V32.3ZM120.966 29.954C120.966 30.3847 120.876 30.7785 120.697 31.1355C120.522 31.4868 120.276 31.7702 119.956 31.9855C119.637 32.1952 119.264 32.3 118.837 32.3H117.374C116.947 32.3 116.572 32.1952 116.246 31.9855C115.927 31.7702 115.677 31.4868 115.498 31.1355C115.323 30.7785 115.237 30.3847 115.237 29.954C115.237 29.5233 115.323 29.1323 115.498 28.781C115.677 28.4297 115.927 28.1492 116.246 27.9395C116.572 27.7298 116.947 27.625 117.374 27.625H118.837C119.264 27.625 119.637 27.7298 119.956 27.9395C120.276 28.1492 120.522 28.4297 120.697 28.781C120.876 29.1323 120.966 29.5233 120.966 29.954ZM120.125 29.954C120.125 29.682 120.074 29.4327 119.973 29.206C119.872 28.9793 119.723 28.8008 119.527 28.6705C119.336 28.5345 119.107 28.4665 118.837 28.4665H117.374C117.104 28.4665 116.871 28.5345 116.675 28.6705C116.484 28.8008 116.336 28.9793 116.229 29.206C116.129 29.4327 116.078 29.682 116.078 29.954C116.078 30.226 116.129 30.4753 116.229 30.702C116.336 30.9287 116.484 31.11 116.675 31.246C116.871 31.382 117.104 31.45 117.374 31.45H118.837C119.107 31.45 119.336 31.382 119.527 31.246C119.723 31.11 119.872 30.9287 119.973 30.702C120.074 30.4753 120.125 30.226 120.125 29.954ZM124.868 32.3H124.026V29.9455C124.026 29.6735 123.959 29.427 123.824 29.206C123.695 28.9793 123.518 28.8008 123.294 28.6705C123.076 28.5345 122.828 28.4665 122.554 28.4665H122.319V32.3H121.477V27.625H122.554C122.952 27.625 123.316 27.7185 123.648 27.9055C123.984 28.0868 124.256 28.3305 124.464 28.6365C124.677 28.3305 124.943 28.0868 125.263 27.9055C125.588 27.7185 125.944 27.625 126.331 27.625H127.408V32.3H126.567V28.4665H126.331C126.062 28.4665 125.815 28.5402 125.591 28.6875C125.372 28.8292 125.196 29.019 125.061 29.257C124.932 29.495 124.868 29.7613 124.868 30.056V32.3ZM133.647 29.954C133.647 30.3847 133.557 30.7785 133.378 31.1355C133.204 31.4868 132.957 31.7702 132.638 31.9855C132.318 32.1952 131.945 32.3 131.519 32.3H130.055C129.628 32.3 129.253 32.1952 128.928 31.9855C128.608 31.7702 128.358 31.4868 128.179 31.1355C128.005 30.7785 127.918 30.3847 127.918 29.954C127.918 29.5233 128.005 29.1323 128.179 28.781C128.358 28.4297 128.608 28.1492 128.928 27.9395C129.253 27.7298 129.628 27.625 130.055 27.625H131.519C131.945 27.625 132.318 27.7298 132.638 27.9395C132.957 28.1492 133.204 28.4297 133.378 28.781C133.557 29.1323 133.647 29.5233 133.647 29.954ZM132.806 29.954C132.806 29.682 132.755 29.4327 132.654 29.206C132.553 28.9793 132.405 28.8008 132.209 28.6705C132.018 28.5345 131.788 28.4665 131.519 28.4665H130.055C129.786 28.4665 129.553 28.5345 129.357 28.6705C129.166 28.8008 129.018 28.9793 128.911 29.206C128.81 29.4327 128.759 29.682 128.759 29.954C128.759 30.226 128.81 30.4753 128.911 30.702C129.018 30.9287 129.166 31.11 129.357 31.246C129.553 31.382 129.786 31.45 130.055 31.45H131.519C131.788 31.45 132.018 31.382 132.209 31.246C132.405 31.11 132.553 30.9287 132.654 30.702C132.755 30.4753 132.806 30.226 132.806 29.954ZM139.602 32.3H138.457L137.145 31.0335H135.437V30.192H137.768C138.003 30.192 138.203 30.107 138.365 29.937C138.533 29.7613 138.617 29.5573 138.617 29.325C138.617 29.087 138.533 28.8858 138.365 28.7215C138.203 28.5515 138.003 28.4665 137.768 28.4665H135V32.3H134.159V27.625H137.768C138.081 27.625 138.365 27.7015 138.617 27.8545C138.87 28.0075 139.072 28.2143 139.223 28.475C139.374 28.73 139.45 29.0133 139.45 29.325C139.45 29.58 139.397 29.8208 139.29 30.0475C139.189 30.2685 139.046 30.4612 138.861 30.6255C138.682 30.7842 138.474 30.8975 138.239 30.9655L139.602 32.3ZM145.474 32.3H144.33L143.017 31.0335H141.309V30.192H143.64C143.875 30.192 144.075 30.107 144.237 29.937C144.405 29.7613 144.489 29.5573 144.489 29.325C144.489 29.087 144.405 28.8858 144.237 28.7215C144.075 28.5515 143.875 28.4665 143.64 28.4665H140.872V32.3H140.031V27.625H143.64C143.954 27.625 144.237 27.7015 144.489 27.8545C144.742 28.0075 144.944 28.2143 145.095 28.475C145.247 28.73 145.322 29.0133 145.322 29.325C145.322 29.58 145.269 29.8208 145.162 30.0475C145.061 30.2685 144.918 30.4612 144.733 30.6255C144.554 30.7842 144.346 30.8975 144.111 30.9655L145.474 32.3ZM151.355 29.954C151.355 30.3847 151.265 30.7785 151.086 31.1355C150.912 31.4868 150.665 31.7702 150.345 31.9855C150.026 32.1952 149.653 32.3 149.227 32.3H147.763C147.336 32.3 146.961 32.1952 146.635 31.9855C146.316 31.7702 146.066 31.4868 145.887 31.1355C145.713 30.7785 145.626 30.3847 145.626 29.954C145.626 29.5233 145.713 29.1323 145.887 28.781C146.066 28.4297 146.316 28.1492 146.635 27.9395C146.961 27.7298 147.336 27.625 147.763 27.625H149.227C149.653 27.625 150.026 27.7298 150.345 27.9395C150.665 28.1492 150.912 28.4297 151.086 28.781C151.265 29.1323 151.355 29.5233 151.355 29.954ZM150.514 29.954C150.514 29.682 150.463 29.4327 150.362 29.206C150.261 28.9793 150.112 28.8008 149.916 28.6705C149.725 28.5345 149.496 28.4665 149.227 28.4665H147.763C147.494 28.4665 147.261 28.5345 147.065 28.6705C146.874 28.8008 146.725 28.9793 146.619 29.206C146.518 29.4327 146.467 29.682 146.467 29.954C146.467 30.226 146.518 30.4753 146.619 30.702C146.725 30.9287 146.874 31.11 147.065 31.246C147.261 31.382 147.494 31.45 147.763 31.45H149.227C149.496 31.45 149.725 31.382 149.916 31.246C150.112 31.11 150.261 30.9287 150.362 30.702C150.463 30.4753 150.514 30.226 150.514 29.954ZM157.755 30.5915C157.755 30.9032 157.68 31.1893 157.528 31.45C157.377 31.7107 157.172 31.9175 156.914 32.0705C156.656 32.2235 156.37 32.3 156.056 32.3C155.809 32.3 155.576 32.2462 155.358 32.1385C155.144 32.0308 154.959 31.8863 154.803 31.705C154.645 31.8863 154.454 32.0308 154.23 32.1385C154.006 32.2462 153.764 32.3 153.507 32.3C153.198 32.3 152.915 32.2235 152.657 32.0705C152.405 31.9175 152.2 31.7107 152.043 31.45C151.892 31.1893 151.816 30.9032 151.816 30.5915V27.625H152.657V30.5915C152.657 30.8352 152.738 31.0392 152.901 31.2035C153.07 31.3678 153.271 31.45 153.507 31.45C153.748 31.45 153.949 31.3678 154.113 31.2035C154.281 31.0392 154.365 30.8352 154.365 30.5915V27.625H155.215V30.4895C155.215 30.7558 155.296 30.9825 155.459 31.1695C155.621 31.3565 155.82 31.45 156.056 31.45C156.297 31.45 156.499 31.3678 156.662 31.2035C156.83 31.0392 156.914 30.8352 156.914 30.5915V27.625H157.755V30.5915Z" fill="#FCCA00"/>
<path d="M49.0818 16.861C49.0818 17.9726 48.8108 18.9954 48.2687 19.9297C47.7267 20.8479 47.0013 21.5808 46.0925 22.1285C45.1838 22.6761 44.1714 22.95 43.0554 22.95C42.067 22.95 41.1503 22.7326 40.3053 22.2976C39.4603 21.8627 38.7589 21.2747 38.2008 20.5338C37.6587 21.2747 36.9653 21.8627 36.1203 22.2976C35.2753 22.7326 34.3586 22.95 33.3701 22.95C32.2701 22.95 31.2577 22.6761 30.333 22.1285C29.4243 21.5808 28.6989 20.8479 28.1568 19.9297C27.6148 18.9954 27.3438 17.9726 27.3438 16.861V6.03629H29.7351V16.861C29.7351 17.5376 29.8946 18.1578 30.2135 18.7216C30.5482 19.2692 30.9867 19.7123 31.5287 20.0505C32.0867 20.3727 32.7005 20.5338 33.3701 20.5338C34.0238 20.5338 34.6217 20.3807 35.1637 20.0747C35.7057 19.7525 36.1362 19.3256 36.455 18.7941C36.7899 18.2625 36.9732 17.6746 37.0051 17.0302V6.03629H39.4204V16.861C39.4204 17.5376 39.5799 18.1578 39.8987 18.7216C40.2335 19.2692 40.672 19.7123 41.214 20.0505C41.772 20.3727 42.3858 20.5338 43.0554 20.5338C43.725 20.5338 44.3308 20.3727 44.8729 20.0505C45.4309 19.7123 45.8694 19.2692 46.1882 18.7216C46.523 18.1578 46.6903 17.5376 46.6903 16.861V6.03629H49.0818V16.861ZM53.7115 22.95H51.3439V9.66067H53.7115V22.95ZM68.04 22.95C68.04 21.8868 67.8328 20.872 67.4182 19.9055C67.0197 18.9229 66.4776 18.0128 65.7921 17.1752C65.1066 16.3375 64.3413 15.5804 63.4963 14.9039C62.6513 14.2274 61.7825 13.6636 60.8896 13.2126C60.0128 12.7615 59.1678 12.4393 58.3547 12.246V22.95H55.9633V9.66067H57.2547V9.68481C58.1156 9.73317 59.0244 9.92646 59.9809 10.2647C60.9534 10.5869 61.9259 11.0379 62.8985 11.6178C63.871 12.1977 64.7957 12.8743 65.6725 13.6474C66.5654 14.4207 67.3545 15.2825 68.04 16.2329V9.66067H70.4315V22.95H68.04ZM88.2725 16.257C88.2725 17.4973 88.0167 18.6249 87.5069 19.6398C86.9963 20.6546 86.2795 21.4599 85.3549 22.056C84.4295 22.652 83.3537 22.95 82.1261 22.95H76.2431V20.5096H82.1261C82.9073 20.5096 83.5689 20.3243 84.111 19.9538C84.6693 19.5672 85.0992 19.0518 85.4021 18.4074C85.7049 17.7631 85.8563 17.0463 85.8563 16.257C85.8563 15.4677 85.7049 14.759 85.4021 14.1307C85.0992 13.5025 84.6693 13.0031 84.111 12.6326C83.5689 12.246 82.9073 12.0527 82.1261 12.0527H75.1192V22.95H72.68V9.6123H82.1261C83.3537 9.6123 84.4295 9.91031 85.3549 10.5063C86.2795 11.1024 86.9963 11.8997 87.5069 12.8984C88.0167 13.8972 88.2725 15.0167 88.2725 16.257Z" fill="#048C04"/>
<path d="M109.818 18.1175C109.818 19.0035 109.604 19.8169 109.173 20.5579C108.742 21.2828 108.169 21.8627 107.451 22.2976C106.733 22.7326 105.928 22.95 105.036 22.95H90.4961V20.5338H105.036C105.705 20.5338 106.272 20.3002 106.733 19.8331C107.196 19.3498 107.427 18.7779 107.427 18.1175C107.427 17.457 107.196 16.8932 106.733 16.4262C106.272 15.9429 105.705 15.7013 105.036 15.7013H95.2787C94.4021 15.7013 93.597 15.4838 92.8634 15.0489C92.1458 14.614 91.5721 14.0341 91.1413 13.3092C90.7115 12.5682 90.4961 11.7547 90.4961 10.8688C90.4961 9.98283 90.7115 9.17745 91.1413 8.45254C91.5721 7.71156 92.1458 7.1236 92.8634 6.68868C93.597 6.25376 94.4021 6.03629 95.2787 6.03629H108.623V8.45254H95.2787C94.625 8.45254 94.0589 8.69414 93.581 9.17745C93.1183 9.64453 92.8878 10.2083 92.8878 10.8688C92.8878 11.5292 93.1183 12.101 93.581 12.5843C94.0589 13.0515 94.625 13.285 95.2787 13.285H105.036C105.928 13.285 106.733 13.5025 107.451 13.9375C108.169 14.3723 108.742 14.9603 109.173 15.7013C109.604 16.4262 109.818 17.2315 109.818 18.1175ZM126.168 14.4932C126.168 15.363 125.952 16.1684 125.522 16.9094C125.092 17.6503 124.509 18.2464 123.776 18.6975C123.059 19.1323 122.262 19.3498 121.385 19.3498H114.736V16.9578H121.385C122.055 16.9578 122.621 16.7161 123.083 16.2329C123.561 15.7335 123.8 15.1535 123.8 14.4932C123.8 13.8166 123.561 13.2448 123.083 12.7776C122.621 12.2944 122.055 12.0527 121.385 12.0527H113.493V22.95H111.126V9.66068H121.385C122.262 9.66068 123.059 9.87811 123.776 10.3131C124.509 10.748 125.092 11.3359 125.522 12.0769C125.952 12.8018 126.168 13.6072 126.168 14.4932ZM129.533 22.95H127.165V9.66068H129.533V22.95ZM143.861 22.95C143.861 21.8868 143.654 20.872 143.24 19.9056C142.841 18.923 142.299 18.0128 141.613 17.1752C140.928 16.3375 140.162 15.5804 139.318 14.9039C138.472 14.2274 137.604 13.6636 136.71 13.2126C135.834 12.7615 134.989 12.4393 134.176 12.246V22.95H131.785V9.66068H133.076V9.68482C133.937 9.73318 134.845 9.92647 135.802 10.2647C136.774 10.5869 137.747 11.0379 138.719 11.6178C139.692 12.1978 140.616 12.8743 141.494 13.6474C142.386 14.4207 143.176 15.2825 143.861 16.2329V9.66068H146.253V22.95H143.861Z" fill="#048C04"/>
<path d="M12.7046 27.6573C18.4829 27.6573 23.1671 22.9245 23.1671 17.0863C23.1671 11.2481 18.4829 6.51525 12.7046 6.51525C6.92639 6.51525 2.24219 11.2481 2.24219 17.0863C2.24219 22.9245 6.92639 27.6573 12.7046 27.6573Z" fill="#048C04"/>
<path d="M19.7422 23.4143C21.1879 21.7724 22.0748 19.6172 22.1014 17.2531C22.0936 17.9319 22.0133 18.6123 21.8591 19.2821C21.5036 20.8254 20.7719 22.2439 19.7422 23.4143Z" fill="#FFFBE6"/>
<path d="M19.0408 24.1297C18.8513 24.3036 18.6543 24.47 18.45 24.6285C16.8252 25.8896 14.8376 26.5739 12.7949 26.5816C15.1994 26.5726 17.3899 25.6458 19.0408 24.1297Z" fill="#FFFBE6"/>
<path d="M12.741 26.5816C12.6471 26.5815 12.5531 26.5798 12.4589 26.5768C10.2989 26.5064 8.22977 25.6814 6.6042 24.2424C6.57714 24.2185 6.55019 24.1945 6.52344 24.1703C8.17282 25.6657 10.3517 26.5769 12.741 26.5816Z" fill="#FFFBE6"/>
<path d="M5.84578 23.4894C4.64223 22.1507 3.8394 20.4843 3.54453 18.6852C3.46774 18.2167 3.42644 17.7455 3.41992 17.2755C3.45244 19.667 4.36525 21.8436 5.84578 23.4894Z" fill="#FFFBE6"/>
<path d="M3.41895 17.0177C3.44007 15.4143 3.86547 13.8329 4.66741 12.4279C5.04106 11.7733 5.48845 11.171 5.99761 10.6313C4.42593 12.2969 3.45089 14.5423 3.41895 17.0177Z" fill="#FFFBE6"/>
<path d="M6.31543 10.311C6.85817 9.78835 7.46229 9.33258 8.11519 8.9545C8.83138 8.53979 9.70176 8.94405 9.99292 9.72443L11.4879 13.7317C11.9575 14.9907 13.6991 15.0474 14.2482 13.8217L15.9956 9.9201C16.3358 9.1602 17.2303 8.81349 17.9185 9.27402C19.2879 10.1903 20.4017 11.4607 21.1366 12.9646C21.7616 14.2435 22.0873 15.6394 22.1016 17.0466C22.0503 11.8784 17.8877 7.70479 12.7605 7.70479C10.2615 7.70479 7.99175 8.69627 6.31543 10.311Z" fill="#FCCA00"/>
<path d="M3.89453 20.1159C4.57901 22.2018 5.98291 24.0555 7.99587 25.2609C7.41788 24.9146 6.87496 24.5041 6.37796 24.0343C5.23276 22.9516 4.38282 21.6022 3.89453 20.1159Z" fill="#FFFBE6"/>
<path d="M3.63119 19.1451C3.57691 18.8924 3.5328 18.6368 3.49906 18.3789C3.23064 16.3265 3.63782 14.2453 4.65254 12.454C3.45795 14.5625 3.1572 16.9425 3.63119 19.1451Z" fill="#FFFBE6"/>
<path d="M4.67969 12.4065C4.72682 12.3244 4.77524 12.243 4.82493 12.1621C5.96532 10.3072 7.70696 8.90919 9.75318 8.20631C9.78716 8.19461 9.82123 8.18304 9.85539 8.17175C7.74896 8.86728 5.87852 10.3181 4.67969 12.4065Z" fill="#FFFBE6"/>
<path d="M10.7783 7.91881C12.5275 7.53503 14.3572 7.66575 16.0468 8.3073C16.4868 8.47437 16.9113 8.67382 17.3174 8.90315C15.2513 7.73582 12.9293 7.44624 10.7783 7.91881Z" fill="#FFFBE6"/>
<path d="M17.5381 9.03194C18.9018 9.85219 20.0446 11.0151 20.8478 12.4193C21.2221 13.0735 21.5147 13.7662 21.7227 14.4815C21.0809 12.2735 19.6438 10.2976 17.5381 9.03194Z" fill="#FFFBE6"/>
<path d="M21.8392 14.9189C22.0158 15.6552 22.1044 16.4117 22.102 17.172C22.0995 18.0061 21.3178 18.5656 20.5032 18.4301L16.321 17.7346C15.0071 17.516 14.0876 19.0117 14.8638 20.1049L17.3343 23.5847C17.8154 24.2624 17.6654 25.2184 16.9265 25.5904C15.4565 26.3304 13.8106 26.6699 12.1541 26.561C10.7454 26.4683 9.38611 26.0553 8.17285 25.3643C12.6284 27.9035 18.2869 26.348 20.8505 21.8617C22.1 19.675 22.3851 17.1932 21.8392 14.9189Z" fill="#FCCA00"/>
<path d="M14.6452 7.89823C12.515 7.45419 10.2242 7.75579 8.18457 8.91446C8.77034 8.58186 9.39364 8.31201 10.0449 8.11206C11.5454 7.65134 13.1271 7.58238 14.6452 7.89823Z" fill="#FFFBE6"/>
<path d="M15.6084 8.15355C15.8521 8.23238 16.0933 8.32159 16.3313 8.42105C18.2246 9.2123 19.8049 10.6093 20.8329 12.3928C19.6229 10.2932 17.7333 8.84009 15.6084 8.15355Z" fill="#FFFBE6"/>
<path d="M20.8604 12.4403C20.9071 12.5225 20.9527 12.6056 20.9972 12.6895C22.0168 14.6148 22.3444 16.8378 21.9237 18.9797C21.9167 19.0154 21.9096 19.0509 21.9022 19.0864C22.3593 16.8955 22.0509 14.5334 20.8604 12.4403Z" fill="#FFFBE6"/>
<path d="M21.6572 20.0201C21.1115 21.7427 20.0846 23.2784 18.6899 24.4359C18.3267 24.7374 17.9435 25.009 17.5439 25.2498C19.5775 24.0256 20.9868 22.1386 21.6572 20.0201Z" fill="#FFFBE6"/>
<path d="M17.3239 25.3788C15.939 26.162 14.3708 26.5804 12.7656 26.5812C12.0177 26.5816 11.2777 26.4913 10.5605 26.3157C12.774 26.858 15.1862 26.5885 17.3239 25.3788Z" fill="#FFFBE6"/>
<path d="M10.1275 26.1984C9.4081 25.9848 8.7154 25.6841 8.06487 25.3019C7.3513 24.8826 7.26259 23.9188 7.78596 23.2738L10.4732 19.9622C11.3175 18.9218 10.4953 17.3693 9.17019 17.5018L4.95232 17.9237C4.13087 18.0058 3.38647 17.3965 3.43708 16.5641C3.53779 14.9077 4.06976 13.2978 4.99136 11.9028C5.77502 10.7166 6.80871 9.73369 8.00768 9.01756C3.60352 11.6466 2.10743 17.3756 4.67105 21.862C5.92054 24.0486 7.90522 25.539 10.1275 26.1984Z" fill="#FCCA00"/>
</svg>
